<svg width="3630" height="827" viewBox="0 0 3630 827" fill="none" xmlns="http://www.w3.org/2000/svg">
<path d="M1102.79 605.375V642.875C1099.7 646.042 1095.58 648.583 1090.41 650.5C1085.33 652.333 1080 653.25 1074.41 653.25C1061.5 653.25 1051.7 649.458 1045.04 641.875C1038.37 634.208 1035.04 623 1035.04 608.25C1035.04 593.833 1038.41 582.75 1045.16 575C1052 567.167 1061.75 563.25 1074.41 563.25C1080.33 563.25 1085.83 564.375 1090.91 566.625C1096 568.792 1099.83 571.708 1102.41 575.375C1100.75 578.292 1098.91 579.75 1096.91 579.75C1095.58 579.75 1094.2 579.167 1092.79 578C1089.95 575.583 1087.08 573.833 1084.16 572.75C1081.25 571.667 1077.95 571.125 1074.29 571.125C1064.45 571.125 1057 574.292 1051.91 580.625C1046.83 586.875 1044.29 596.083 1044.29 608.25C1044.29 620.75 1046.75 630.083 1051.66 636.25C1056.66 642.333 1064.2 645.375 1074.29 645.375C1078.45 645.375 1082.33 644.833 1085.91 643.75C1089.5 642.667 1092.12 641.208 1093.79 639.375V613.125H1076.16C1074.5 613.125 1073.29 612.542 1072.54 611.375C1071.87 610.208 1071.54 608.208 1071.54 605.375H1102.79ZM1203.04 653.25C1191.29 653.25 1182.25 649.333 1175.91 641.5C1169.66 633.667 1166.54 622.417 1166.54 607.75C1166.54 593.417 1169.66 582.417 1175.91 574.75C1182.25 567.083 1191.29 563.25 1203.04 563.25C1214.79 563.25 1223.79 567.083 1230.04 574.75C1236.37 582.417 1239.54 593.417 1239.54 607.75C1239.54 622.417 1236.37 633.667 1230.04 641.5C1223.79 649.333 1214.79 653.25 1203.04 653.25ZM1203.04 645.25C1212.04 645.25 1218.83 642.125 1223.41 635.875C1228 629.542 1230.29 620.167 1230.29 607.75C1230.29 583.417 1221.21 571.25 1203.04 571.25C1184.87 571.25 1175.79 583.417 1175.79 607.75C1175.79 620.167 1178.08 629.542 1182.66 635.875C1187.25 642.125 1194.04 645.25 1203.04 645.25ZM1370.5 634.875C1370.5 637.458 1370.58 640.5 1370.75 644C1370.92 646.333 1371 647.875 1371 648.625C1371 650.875 1369.92 652 1367.75 652H1361.5V645.25C1361.5 640.417 1359.88 635.792 1356.63 631.375L1315.25 576.875V652H1306.25V564.5H1313.5C1314.58 564.5 1315.42 564.667 1316 565C1316.67 565.25 1317.42 565.917 1318.25 567L1361.5 623.875V564.5H1370.5V634.875ZM1507.3 605.375V642.875C1504.22 646.042 1500.1 648.583 1494.93 650.5C1489.85 652.333 1484.51 653.25 1478.93 653.25C1466.01 653.25 1456.22 649.458 1449.55 641.875C1442.89 634.208 1439.55 623 1439.55 608.25C1439.55 593.833 1442.93 582.75 1449.68 575C1456.51 567.167 1466.26 563.25 1478.93 563.25C1484.85 563.25 1490.35 564.375 1495.43 566.625C1500.51 568.792 1504.35 571.708 1506.93 575.375C1505.26 578.292 1503.43 579.75 1501.43 579.75C1500.1 579.75 1498.72 579.167 1497.3 578C1494.47 575.583 1491.6 573.833 1488.68 572.75C1485.76 571.667 1482.47 571.125 1478.8 571.125C1468.97 571.125 1461.51 574.292 1456.43 580.625C1451.35 586.875 1448.8 596.083 1448.8 608.25C1448.8 620.75 1451.26 630.083 1456.18 636.25C1461.18 642.333 1468.72 645.375 1478.8 645.375C1482.97 645.375 1486.85 644.833 1490.43 643.75C1494.01 642.667 1496.64 641.208 1498.3 639.375V613.125H1480.68C1479.01 613.125 1477.8 612.542 1477.05 611.375C1476.39 610.208 1476.05 608.208 1476.05 605.375H1507.3ZM1605.31 653.25C1599.56 653.25 1594.26 652.375 1589.43 650.625C1584.6 648.792 1580.76 646.333 1577.93 643.25C1575.1 640.167 1573.68 636.792 1573.68 633.125C1573.68 631.458 1574.26 630.125 1575.43 629.125C1576.68 628.042 1578.31 627.458 1580.31 627.375C1581.64 633.292 1584.47 637.792 1588.81 640.875C1593.14 643.958 1598.72 645.5 1605.56 645.5C1612.56 645.5 1618.18 643.875 1622.43 640.625C1626.76 637.375 1628.93 633.125 1628.93 627.875C1628.93 624.792 1628.14 622.167 1626.56 620C1625.06 617.833 1622.56 615.917 1619.06 614.25C1615.56 612.5 1610.72 610.833 1604.56 609.25C1597.39 607.333 1591.76 605.333 1587.68 603.25C1583.6 601.083 1580.64 598.667 1578.81 596C1577.06 593.25 1576.18 589.875 1576.18 585.875C1576.18 578.875 1578.76 573.375 1583.93 569.375C1589.1 565.292 1596.22 563.25 1605.31 563.25C1613.22 563.25 1619.81 565.125 1625.06 568.875C1630.39 572.542 1633.97 577.75 1635.81 584.5C1634.72 585.583 1633.06 586.125 1630.81 586.125C1628.47 586.125 1626.76 585 1625.68 582.75C1623.85 579.083 1621.06 576.167 1617.31 574C1613.64 571.833 1609.64 570.75 1605.31 570.75C1598.72 570.75 1593.72 572.042 1590.31 574.625C1586.89 577.208 1585.18 580.958 1585.18 585.875C1585.18 588.375 1585.81 590.5 1587.06 592.25C1588.31 593.917 1590.39 595.458 1593.31 596.875C1596.22 598.292 1600.35 599.75 1605.68 601.25C1614.6 603.75 1621.31 606.125 1625.81 608.375C1630.39 610.625 1633.6 613.167 1635.43 616C1637.26 618.833 1638.18 622.542 1638.18 627.125C1638.18 632.375 1636.85 637 1634.18 641C1631.51 644.917 1627.68 647.958 1622.68 650.125C1617.76 652.208 1611.97 653.25 1605.31 653.25ZM1769.51 564.5V652H1760.51V610.75H1715.01V652H1706.01V564.5H1715.01V603.25H1760.51V564.5H1769.51ZM1893.34 644.5C1893.34 647.5 1892.88 649.5 1891.97 650.5C1891.13 651.5 1889.43 652 1886.84 652H1840.97V564.5H1893.22V572H1849.97V603.5H1887.22V611H1849.97V644.5H1893.34ZM2025.16 634.875C2025.16 637.458 2025.25 640.5 2025.41 644C2025.58 646.333 2025.66 647.875 2025.66 648.625C2025.66 650.875 2024.58 652 2022.41 652H2016.16V645.25C2016.16 640.417 2014.54 635.792 2011.29 631.375L1969.91 576.875V652H1960.91V564.5H1968.16C1969.25 564.5 1970.08 564.667 1970.66 565C1971.33 565.25 1972.08 565.917 1972.91 567L2016.16 623.875V564.5H2025.16V634.875ZM2161.97 605.375V642.875C2158.88 646.042 2154.76 648.583 2149.59 650.5C2144.51 652.333 2139.18 653.25 2133.59 653.25C2120.68 653.25 2110.88 649.458 2104.22 641.875C2097.55 634.208 2094.22 623 2094.22 608.25C2094.22 593.833 2097.59 582.75 2104.34 575C2111.18 567.167 2120.93 563.25 2133.59 563.25C2139.51 563.25 2145.01 564.375 2150.09 566.625C2155.18 568.792 2159.01 571.708 2161.59 575.375C2159.93 578.292 2158.09 579.75 2156.09 579.75C2154.76 579.75 2153.38 579.167 2151.97 578C2149.13 575.583 2146.26 573.833 2143.34 572.75C2140.43 571.667 2137.13 571.125 2133.47 571.125C2123.63 571.125 2116.18 574.292 2111.09 580.625C2106.01 586.875 2103.47 596.083 2103.47 608.25C2103.47 620.75 2105.93 630.083 2110.84 636.25C2115.84 642.333 2123.38 645.375 2133.47 645.375C2137.63 645.375 2141.51 644.833 2145.09 643.75C2148.68 642.667 2151.3 641.208 2152.97 639.375V613.125H2135.34C2133.68 613.125 2132.47 612.542 2131.72 611.375C2131.05 610.208 2130.72 608.208 2130.72 605.375H2161.97ZM2387.07 652C2386.32 625.833 2383.95 600.875 2379.95 577.125C2376.95 583.958 2373.99 591.583 2371.07 600C2368.15 608.333 2363.49 622.75 2357.07 643.25H2350.57C2344.9 625.25 2340.45 611.708 2337.2 602.625C2334.03 593.458 2330.82 585.083 2327.57 577.5C2323.57 600.25 2321.2 625.083 2320.45 652H2311.45C2311.86 636.333 2312.86 620.917 2314.45 605.75C2316.11 590.583 2318.24 576.833 2320.82 564.5H2330.82C2335.82 575.25 2340.03 585.083 2343.45 594C2346.86 602.917 2350.32 613.125 2353.82 624.625C2357.32 613.125 2360.78 602.958 2364.2 594.125C2367.61 585.208 2371.78 575.333 2376.7 564.5H2386.7C2389.28 576.833 2391.36 590.583 2392.95 605.75C2394.61 620.917 2395.65 636.333 2396.07 652H2387.07ZM2521.96 652C2519.71 641.667 2517.58 633.208 2515.58 626.625H2473.08C2471.08 633.208 2468.96 641.667 2466.71 652H2457.46C2461.79 634.167 2466.5 618.333 2471.58 604.5C2476.67 590.583 2482.71 577.25 2489.71 564.5H2499.08C2506 577.167 2512 590.458 2517.08 604.375C2522.17 618.208 2526.87 634.083 2531.21 652H2521.96ZM2513.46 619.125C2508.37 602.958 2502 587.792 2494.33 573.625C2486.67 587.792 2480.29 602.958 2475.21 619.125H2513.46ZM2641.75 564.5C2642.08 566 2642.25 567 2642.25 567.5C2642.25 568.917 2641.87 570.042 2641.12 570.875C2640.37 571.625 2639.25 572 2637.75 572H2614.75V652H2605.75V572H2578.75V564.5H2641.75ZM2766.77 651.625C2765.1 652.542 2763.31 653 2761.39 653C2759.89 653 2758.64 652.708 2757.64 652.125C2756.73 651.542 2755.89 650.583 2755.14 649.25L2740.89 624.75C2738.89 621.25 2736.44 618.792 2733.52 617.375C2730.69 615.875 2726.81 615.125 2721.89 615.125H2713.39V652H2704.39V564.5H2732.77C2742.85 564.5 2750.77 566.75 2756.52 571.25C2762.27 575.667 2765.14 581.833 2765.14 589.75C2765.14 596 2763.06 601.417 2758.89 606C2754.73 610.5 2749.31 613.292 2742.64 614.375C2745.06 616.375 2747.23 618.917 2749.14 622L2766.77 651.625ZM2732.14 607.375C2739.64 607.375 2745.44 605.833 2749.52 602.75C2753.69 599.667 2755.77 595.333 2755.77 589.75C2755.77 584 2753.81 579.667 2749.89 576.75C2746.06 573.75 2740.35 572.25 2732.77 572.25H2713.39V607.375H2732.14ZM2839.63 564.5H2848.63V652H2839.63V564.5ZM2976.08 652C2974.75 644 2972.13 637 2968.21 631C2964.29 624.917 2959 618.5 2952.33 611.75C2945.67 618.5 2940.38 624.917 2936.46 631C2932.54 637 2929.92 644 2928.58 652H2918.96C2920.21 645.167 2922.17 639.042 2924.83 633.625C2927.58 628.125 2930.67 623.292 2934.08 619.125C2937.5 614.958 2941.63 610.5 2946.46 605.75C2939.38 598.667 2933.75 592.083 2929.58 586C2925.42 579.833 2922.5 572.667 2920.83 564.5H2930.21C2931.71 571.5 2934.25 577.667 2937.83 583C2941.5 588.25 2946.33 593.875 2952.33 599.875C2958.33 593.875 2963.13 588.25 2966.71 583C2970.38 577.667 2972.96 571.5 2974.46 564.5H2983.83C2982.17 572.667 2979.25 579.833 2975.08 586C2970.92 592.083 2965.29 598.667 2958.21 605.75C2963.04 610.5 2967.17 614.958 2970.58 619.125C2974 623.292 2977.04 628.125 2979.71 633.625C2982.46 639.042 2984.46 645.167 2985.71 652H2976.08Z" fill="black"/>
<path d="M2449.04 156.744H2271.38C2260.94 156.744 2252.47 165.212 2252.47 175.658V426.668C2252.47 437.114 2260.94 445.582 2271.38 445.582H2449.04" stroke="black" stroke-width="27" stroke-linecap="round"/>
<path d="M2251.75 347.644L2420 347.644C2430.44 347.644 2438.91 339.176 2438.91 328.73L2438.91 272.975C2438.91 262.529 2430.44 254.061 2420 254.061L2251.75 254.061" stroke="black" stroke-width="27" stroke-linecap="round"/>
<path d="M2077.06 322.688L2220.55 322.688" stroke="black" stroke-width="27" stroke-linecap="round"/>
<path d="M2077.06 322.688L2220.55 322.688" stroke="black" stroke-width="27" stroke-linecap="round"/>
<path d="M2102.01 191.672L2208.07 191.672" stroke="black" stroke-width="27" stroke-linecap="round"/>
<path d="M2073.94 254.061C2073.94 254.061 2087.1 224.686 2092.65 204.15C2098.42 182.853 2102.01 148 2102.01 148" stroke="black" stroke-width="27" stroke-linecap="round"/>
<path d="M2219.82 436.845C2219.82 436.845 2201.18 407.117 2186 389.363C2170.26 370.952 2141.04 345.678 2141.04 345.678" stroke="black" stroke-width="27" stroke-linecap="round"/>
<path d="M2070.82 444.346C2070.82 444.346 2107.49 410.179 2117.61 394.435C2122.98 386.082 2135.93 367.837 2139.44 353.883C2154.29 294.88 2151.92 197.911 2151.92 197.911" stroke="black" stroke-width="27" stroke-linecap="round"/>
<path d="M1615.38 210.388H1933.56" stroke="black" stroke-width="27" stroke-linecap="round"/>
<path d="M1571.7 447.466L1952.27 447.466" stroke="black" stroke-width="27" stroke-linecap="round"/>
<path d="M1571.7 447.466L1952.27 447.466" stroke="black" stroke-width="27" stroke-linecap="round"/>
<path d="M1596.66 322.688L1933.56 322.688" stroke="black" stroke-width="27" stroke-linecap="round"/>
<path d="M1765.11 447.466L1765.11 148" stroke="black" stroke-width="27" stroke-linecap="round"/>
<path d="M1765.11 447.466L1765.11 148" stroke="black" stroke-width="27" stroke-linecap="round"/>
<path d="M1565.47 275.897C1565.47 275.897 1588.4 248.4 1601.67 222.093C1614.52 196.609 1628.83 154.239 1628.83 154.239" stroke="black" stroke-width="27" stroke-linecap="round"/>
<path d="M1565.47 275.897C1565.47 275.897 1588.4 248.4 1601.67 222.093C1614.52 196.609 1628.83 154.239 1628.83 154.239" stroke="black" stroke-width="27" stroke-linecap="round"/>
<path d="M2577.42 155.94H2673.63C2684.07 155.94 2692.49 164.426 2691.2 174.792C2689.65 187.245 2686.32 203.355 2679.16 215.008C2672.27 226.198 2664.85 235.256 2658.63 241.939C2658.15 242.456 2647.62 252.815 2647.03 253.205V253.205C2618.86 271.813 2665.03 263.58 2673.8 274.076C2683.91 286.183 2685.49 293.441 2687.19 311.382C2689.65 337.434 2679.31 355.701 2665.77 376.668C2649.71 401.539 2630.96 413.974 2630.96 413.974" stroke="black" stroke-width="27" stroke-linecap="round"/>
<path d="M2721.83 176.802L2950.49 176.802" stroke="black" stroke-width="27" stroke-linecap="round"/>
<path d="M2721.83 297.152H2950.49" stroke="black" stroke-width="27" stroke-linecap="round"/>
<path d="M2838.17 459.943L2838.17 235.344" stroke="black" stroke-width="27" stroke-linecap="round"/>
<path d="M2721.83 405.466L2950.49 405.466" stroke="black" stroke-width="27" stroke-linecap="round"/>
<path d="M2577.42 447.466L2577.42 160.478" stroke="black" stroke-width="27" stroke-linecap="round"/>
<path d="M2721.83 297.152C2721.83 297.152 2762.91 245.309 2779.27 219.683C2795.11 194.858 2814.05 154.239 2814.05 154.239" stroke="black" stroke-width="27" stroke-linecap="round"/>
<path d="M1072.6 207.27H1428.21" stroke="black" stroke-width="27" stroke-linecap="round"/>
<path d="M1060.12 322.689L1446.93 322.689" stroke="black" stroke-width="27" stroke-linecap="round"/>
<path d="M1166.18 316.45V148" stroke="black" stroke-width="27" stroke-linecap="round"/>
<path d="M1334.63 316.45V148" stroke="black" stroke-width="27" stroke-linecap="round"/>
<path d="M1057 444.346C1057 444.346 1098.33 423.752 1122.51 406.913C1145.93 390.6 1178.66 360.121 1178.66 360.121" stroke="black" stroke-width="27" stroke-linecap="round"/>
<path d="M1446.93 447.466C1446.93 447.466 1404.54 426.109 1379.74 408.646C1355.72 391.729 1322.15 360.122 1322.15 360.122" stroke="black" stroke-width="27" stroke-linecap="round"/>
<path d="M233 360.34L516.55 76.7904H614.131L281.79 409.131L233 360.34Z" fill="url(#paint0_linear_1_2)"/>
<rect x="467.759" y="595.1" width="401" height="69" transform="rotate(-45 467.759 595.1)" fill="#8CE3E3"/>
<rect x="633.93" y="194.17" width="200.5" height="69" transform="rotate(45 633.93 194.17)" fill="#8CE3E3"/>
<path d="M516.55 643.89L233 360.34L330.05 360.34L516.55 546.309L516.55 643.89Z" fill="url(#paint1_linear_1_2)"/>
<path d="M731.509 194.17L541.298 384.382L492.508 335.591L633.929 194.17L731.509 194.17Z" fill="url(#paint2_linear_1_2)"/>
<path d="M682.72 242.96L800.1 360.34L704.287 362.108L633.93 291.751L682.72 242.96Z" fill="#A0D5F8"/>
<path d="M541.299 384.382L492.508 335.591L590.089 335.591L541.299 384.382Z" fill="#70B8EE"/>
<path d="M800.1 360.34L516.55 643.89L516.196 546.663L702.519 360.34L800.1 360.34Z" fill="url(#paint3_linear_1_2)"/>
<path d="M233 360.34L516.55 76.7905H614.131L281.79 409.131L233 360.34Z" fill="url(#paint4_linear_1_2)"/>
<rect x="467.759" y="595.1" width="401" height="69" transform="rotate(-45 467.759 595.1)" fill="#8CE3E3"/>
<rect x="633.93" y="194.17" width="200.5" height="69" transform="rotate(45 633.93 194.17)" fill="#8CE3E3"/>
<path d="M516.55 643.89L233 360.34L330.05 360.34L516.55 546.309L516.55 643.89Z" fill="url(#paint5_linear_1_2)"/>
<path d="M731.509 194.17L541.298 384.382L492.508 335.591L633.929 194.17L731.509 194.17Z" fill="url(#paint6_linear_1_2)"/>
<path d="M682.72 242.961L800.1 360.34L704.287 362.108L633.93 291.751L682.72 242.961Z" fill="#B0C7FC"/>
<path d="M541.299 384.382L492.508 335.592L590.089 335.592L541.299 384.382Z" fill="#A79CE8"/>
<path d="M800.1 360.34L516.55 643.89L516.196 546.663L702.519 360.34L800.1 360.34Z" fill="url(#paint7_linear_1_2)"/>
<path fill-rule="evenodd" clip-rule="evenodd" d="M330.05 360.39L613.6 76.8397L662.391 125.63L427.631 360.39L496.22 428.979L682.19 243.01L730.98 194.219L779.77 243.01L848.36 311.599L881.594 344.833L897.15 360.39L613.6 643.939L516.019 643.939L799.569 360.39L730.98 291.8L545.011 477.769L496.22 526.56L345.607 375.946L330.05 360.39Z" fill="url(#paint8_radial_1_2)"/>
<defs>
<linearGradient id="paint0_linear_1_2" x1="305.05" y1="338.34" x2="546.55" y2="88.3402" gradientUnits="userSpaceOnUse">
<stop stop-color="#95CFF8"/>
<stop offset="1" stop-color="#BAE6FB"/>
</linearGradient>
<linearGradient id="paint1_linear_1_2" x1="611.05" y1="643.84" x2="260.05" y2="275.84" gradientUnits="userSpaceOnUse">
<stop stop-color="#95CEF8"/>
<stop offset="1" stop-color="#B9E6FA"/>
</linearGradient>
<linearGradient id="paint2_linear_1_2" x1="524.55" y1="351.34" x2="587.614" y2="240.486" gradientUnits="userSpaceOnUse">
<stop stop-color="#95CEF8"/>
<stop offset="1" stop-color="#B9E6FA"/>
</linearGradient>
<linearGradient id="paint3_linear_1_2" x1="543.5" y1="621.5" x2="719" y2="396.5" gradientUnits="userSpaceOnUse">
<stop offset="0.124179" stop-color="#70B8EE"/>
<stop offset="1" stop-color="#BAE6FA"/>
</linearGradient>
<linearGradient id="paint4_linear_1_2" x1="305.05" y1="338.34" x2="614" y2="94" gradientUnits="userSpaceOnUse">
<stop stop-color="#D4BAFF"/>
<stop offset="1" stop-color="#F9DFFF"/>
</linearGradient>
<linearGradient id="paint5_linear_1_2" x1="611.05" y1="643.84" x2="260.05" y2="275.84" gradientUnits="userSpaceOnUse">
<stop stop-color="#BE9FFF"/>
<stop offset="1" stop-color="#DAE4F4"/>
</linearGradient>
<linearGradient id="paint6_linear_1_2" x1="524.55" y1="351.34" x2="587.614" y2="240.486" gradientUnits="userSpaceOnUse">
<stop stop-color="#D4BAFF"/>
<stop offset="1" stop-color="#F3D9FF"/>
</linearGradient>
<linearGradient id="paint7_linear_1_2" x1="658.325" y1="502.115" x2="609.534" y2="453.325" gradientUnits="userSpaceOnUse">
<stop stop-color="#9DB3FF"/>
<stop offset="0.640625" stop-color="#F4DAFE"/>
</linearGradient>
<radialGradient id="paint8_radial_1_2" cx="0" cy="0" r="1" gradientUnits="userSpaceOnUse" gradientTransform="translate(426.05 196.84) rotate(50.0479) scale(325.471 381.475)">
<stop offset="0.0967289" stop-color="#E26FFF"/>
<stop offset="0.458333" stop-color="#C347D7"/>
<stop offset="1" stop-color="#3F50C6"/>
</radialGradient>
</defs>
</svg>
